<svg id="Layer_1" data-name="Layer 1" xmlns="http://www.w3.org/2000/svg" xmlns:xlink="http://www.w3.org/1999/xlink" viewBox="0 0 373.26 362.77"><defs><style>.cls-1{fill:none;}.cls-2{clip-path:url(#clip-path);}.cls-3{fill:#393a7c;}.cls-4{fill:#393b7d;}.cls-5{fill:#383b7d;}.cls-6{fill:#383c7d;}.cls-7{fill:#383c7e;}.cls-8{fill:#383d7e;}.cls-9{fill:#373d7f;}.cls-10{fill:#373e7f;}.cls-11{fill:#373e80;}.cls-12{fill:#373f80;}.cls-13{fill:#364081;}.cls-14{fill:#364182;}.cls-15{fill:#354283;}.cls-16{fill:#354384;}.cls-17{fill:#344484;}.cls-18{fill:#344485;}.cls-19{fill:#344585;}.cls-20{fill:#334686;}.cls-21{fill:#334787;}.cls-22{fill:#324888;}.cls-23{fill:#324989;}.cls-24{fill:#324a89;}.cls-25{fill:#314a8a;}.cls-26{fill:#314b8b;}.cls-27{fill:#304c8b;}.cls-28{fill:#304d8c;}.cls-29{fill:#2f4e8d;}.cls-30{fill:#2f4f8e;}.cls-31{fill:#2f508e;}.cls-32{fill:#2e518f;}.cls-33{fill:#2e5190;}.cls-34{fill:#2d5291;}.cls-35{fill:#2d5392;}.cls-36{fill:#2c5492;}.cls-37{fill:#2c5593;}.cls-38{fill:#2b5694;}.cls-39{fill:#2b5795;}.cls-40{fill:#2a5896;}.cls-41{fill:#2a5a97;}.cls-42{fill:#295b98;}.cls-43{fill:#295c99;}.cls-44{fill:#285d9a;}.cls-45{fill:#285e9b;}.cls-46{fill:#275f9b;}.cls-47{fill:#27609c;}.cls-48{fill:#26619d;}.cls-49{fill:#26639e;}.cls-50{fill:#25649f;}.cls-51{fill:#2465a0;}.cls-52{fill:#2466a2;}.cls-53{fill:#2367a3;}.cls-54{fill:#2369a4;}.cls-55{fill:#226aa5;}.cls-56{fill:#216ba6;}.cls-57{fill:#216ca7;}.cls-58{fill:#206ea8;}.cls-59{fill:#206fa9;}.cls-60{fill:#1f70aa;}.cls-61{fill:#1e72ab;}.cls-62{fill:#1e73ac;}.cls-63{fill:#1d74ae;}.cls-64{fill:#1c76af;}.cls-65{fill:#1c77b0;}.cls-66{fill:#1b79b1;}.cls-67{fill:#1a7ab2;}.cls-68{fill:#1a7bb4;}.cls-69{fill:#197db5;}.cls-70{fill:#187eb6;}.cls-71{fill:#1880b7;}.cls-72{fill:#1781b9;}.cls-73{fill:#1683ba;}.cls-74{fill:#1584bb;}.cls-75{fill:#1586bc;}.cls-76{fill:#1487be;}.cls-77{fill:#1389bf;}.cls-78{fill:#128ac0;}.cls-79{fill:#128cc2;}.cls-80{fill:#118ec3;}.cls-81{fill:#108fc4;}.cls-82{fill:#0f91c6;}.cls-83{fill:#0f92c7;}.cls-84{fill:#0e94c8;}.cls-85{fill:#0d96ca;}.cls-86{fill:#0c97cb;}.cls-87{fill:#0b99cd;}.cls-88{fill:#0b9bce;}.cls-89{fill:#0a9cd0;}.cls-90{fill:#099ed1;}.cls-91{fill:url(#radial-gradient);}.cls-92{clip-path:url(#clip-path-2);}.cls-93{fill:url(#radial-gradient-2);}.cls-94{fill:#fff;}</style><clipPath id="clip-path" transform="translate(-11.52 -17.99)"><path class="cls-1" d="M377,177.06c0,83.71-78.65,191.15-195.44,193.53C66.67,372.94,18.1,299.54,20,217.1c1.91-84.38,92.49-193.75,207.36-190.68C334.1,29.28,377,93.34,377,177.06Z"/></clipPath><radialGradient id="radial-gradient" cx="198.46" cy="198.5" r="176.37" gradientUnits="userSpaceOnUse"><stop offset="0" stop-color="#09b0d1"/><stop offset="1" stop-color="#393a7c"/></radialGradient><clipPath id="clip-path-2" transform="translate(-11.52 -17.99)"><ellipse class="cls-1" cx="198.46" cy="200.78" rx="162.79" ry="161.23"/></clipPath><radialGradient id="radial-gradient-2" cx="198.46" cy="200.78" r="163.01" gradientUnits="userSpaceOnUse"><stop offset="0" stop-color="#09b0d1"/><stop offset="0.21" stop-color="#188ab6"/><stop offset="0.43" stop-color="#27679d"/><stop offset="0.65" stop-color="#314e8b"/><stop offset="0.84" stop-color="#373f80"/><stop offset="1" stop-color="#393a7c"/></radialGradient></defs><g class="cls-2"><rect class="cls-3" x="6.58" y="5.35" width="358.9" height="349.59"/><path class="cls-3" d="M378,278.81v95.13H17.1V173.07H14A272.63,272.63,0,0,1,158.61,28.5q12.18-5.16,25-9.13v3H345.14v-3q12.75,4,25,9.13,6.09,2.58,12,5.44H378Z" transform="translate(-11.52 -17.99)"/><path class="cls-3" d="M378,278.81v95.13H17.1V174.13h-.56A269.92,269.92,0,0,1,159.67,31q12.06-5.1,24.71-9v.39h160V22Q357,25.89,369,31q6,2.56,11.91,5.39H378Z" transform="translate(-11.52 -17.99)"/><path class="cls-3" d="M378,278.81v95.13H17.1V187.28H14.28q2.24-6.12,4.77-12.09A266.17,266.17,0,0,1,210.7,18v4.36H318V18a264,264,0,0,1,50,15.52q6,2.52,11.79,5.33H378Z" transform="translate(-11.52 -17.99)"/><path class="cls-3" d="M378,278.81v95.13H19.12v1.5c-.79-2-1.55-4-2.29-6h.27v-169H12.69q3.84-12.37,8.86-24.21A264.41,264.41,0,0,1,161.78,36a261.14,261.14,0,0,1,49.47-15.35v1.69H317.46V20.66A261.27,261.27,0,0,1,366.92,36q5.91,2.51,11.68,5.28H378Z" transform="translate(-11.52 -17.99)"/><path class="cls-3" d="M378,278.81v95.13H24.05v6.39q-4.95-11.7-8.77-24H17.1V201.26H15.28q3.81-12.24,8.77-24A261.1,261.1,0,0,1,365.87,38.51q5.85,2.48,11.55,5.23,2.85,1.36,5.66,2.81H378Z" transform="translate(-11.52 -17.99)"/><path class="cls-4" d="M378,278.81v95.13H26.55v5.33a255.53,255.53,0,0,1-15-48.44H17.1v-104H11.52a255.53,255.53,0,0,1,15-48.44A258.37,258.37,0,0,1,364.81,41q5.79,2.44,11.43,5.17,2.82,1.35,5.6,2.78H378Z" transform="translate(-11.52 -17.99)"/><path class="cls-4" d="M378,278.81v95.13H29.06v4.27a253.29,253.29,0,0,1-14.88-47.93H17.1V227.35H14.18A255.57,255.57,0,0,1,363.75,43.52q5.73,2.43,11.31,5.11,2.79,1.35,5.55,2.76H378Z" transform="translate(-11.52 -17.99)"/><path class="cls-5" d="M378,278.81v95.13H31.56v3.22a252,252,0,0,1-19.85-98.35c0-139.53,113.11-252.64,252.64-252.64A251.88,251.88,0,0,1,362.69,46q11.34,4.8,22.09,10.64H378Z" transform="translate(-11.52 -17.99)"/><path class="cls-5" d="M378,278.81v95.13H34.06v2.16a249.29,249.29,0,0,1-19.64-97.29c0-138,111.9-249.92,249.93-249.92a249.11,249.11,0,0,1,97.29,19.64q11.21,4.74,21.84,10.52H378Z" transform="translate(-11.52 -17.99)"/><path class="cls-6" d="M378,278.81v95.13H36.57V375a246.44,246.44,0,0,1-19.43-96.23C17.14,142.28,127.82,31.6,264.35,31.6A246.44,246.44,0,0,1,360.58,51q11.09,4.69,21.61,10.41H378Z" transform="translate(-11.52 -17.99)"/><path class="cls-7" d="M378,278.81v95.13H39.07v0a243.76,243.76,0,0,1-19.21-95.17c0-135,109.46-244.49,244.49-244.49a243.76,243.76,0,0,1,95.17,19.21q11,4.65,21.37,10.3H378Z" transform="translate(-11.52 -17.99)"/><path class="cls-7" d="M378,278.81v95.13H43.93v4.38c-.81-1.79-1.59-3.59-2.36-5.39a241.13,241.13,0,0,1-19-94.12C22.57,145.28,130.82,37,264.35,37a240.87,240.87,0,0,1,94.11,19q10.86,4.58,21.14,10.18H378Z" transform="translate(-11.52 -17.99)"/><path class="cls-8" d="M378,278.81v95.13H46.41v3.26c-.8-1.77-1.58-3.54-2.33-5.33a238.28,238.28,0,0,1-18.79-93.06c0-132,107-239.06,239.06-239.06a238.28,238.28,0,0,1,93.06,18.79q10.72,4.53,20.89,10.07H378Z" transform="translate(-11.52 -17.99)"/><path class="cls-9" d="M378,278.81v95.13H48.88v2.14c-.78-1.75-1.55-3.5-2.3-5.27a235.56,235.56,0,0,1-18.57-92C28,148.28,133.82,42.47,264.35,42.47a235.6,235.6,0,0,1,92,18.57Q367,65.53,377,71c1.67.91,3.34,1.84,5,2.79h-4Z" transform="translate(-11.52 -17.99)"/><path class="cls-10" d="M378,278.81v95.13H53.76v6.16q-2.46-5.1-4.68-10.35a232.93,232.93,0,0,1-18.36-90.94c0-129,104.6-233.62,233.63-233.62a232.75,232.75,0,0,1,90.94,18.36q10.48,4.42,20.42,9.83,2.49,1.35,4.93,2.76H378Z" transform="translate(-11.52 -17.99)"/><path class="cls-11" d="M378,278.81v95.13H56.21v5q-2.43-5-4.62-10.22a230.12,230.12,0,0,1-18.15-89.89C33.44,151.29,136.82,47.9,264.35,47.9a230.07,230.07,0,0,1,89.88,18.15q10.36,4.38,20.19,9.72,4.9,2.67,9.67,5.56H378Z" transform="translate(-11.52 -17.99)"/><path class="cls-12" d="M378,278.81v95.13H58.66v3.81q-2.4-5-4.57-10.11a227.44,227.44,0,0,1-17.93-88.83c0-126,102.16-228.19,228.19-228.19a227.44,227.44,0,0,1,88.83,17.93q10.23,4.33,19.94,9.61,4.86,2.64,9.56,5.5H378Z" transform="translate(-11.52 -17.99)"/><path class="cls-12" d="M378,278.81v95.13H61.11v2.63q-2.38-4.94-4.52-10a224.73,224.73,0,0,1-17.72-87.77c0-124.52,100.95-225.47,225.48-225.47a224.8,224.8,0,0,1,87.77,17.71q10.11,4.29,19.71,9.5c3.19,1.73,6.34,3.55,9.44,5.43H378Z" transform="translate(-11.52 -17.99)"/><path class="cls-13" d="M378,278.81v95.13H63.56v1.45q-2.36-4.86-4.46-9.87a221.92,221.92,0,0,1-17.51-86.71c0-123,99.73-222.76,222.76-222.76a222.1,222.1,0,0,1,86.71,17.51q10,4.23,19.47,9.38,4.74,2.57,9.33,5.36H378Z" transform="translate(-11.52 -17.99)"/><path class="cls-13" d="M378,278.81v95.13H66v.27q-2.33-4.8-4.41-9.74a219.29,219.29,0,0,1-17.29-85.66c0-121.52,98.51-220,220-220A219.42,219.42,0,0,1,350,76.06q9.88,4.17,19.24,9.27,4.68,2.53,9.21,5.3H378Z" transform="translate(-11.52 -17.99)"/><path class="cls-14" d="M378,278.81v95.13H70.8v3.81q-1.2-2.34-2.35-4.71-2.28-4.76-4.35-9.63A216.61,216.61,0,0,1,47,278.81c0-120,97.3-217.32,217.33-217.32A216.79,216.79,0,0,1,349,78.56q9.75,4.13,19,9.16,4.62,2.5,9.11,5.23,2.24,1.36,4.44,2.77H378Z" transform="translate(-11.52 -17.99)"/><path class="cls-14" d="M378,278.81v95.13H73.22v2.58c-.79-1.54-1.56-3.1-2.32-4.66q-2.25-4.69-4.3-9.51a213.9,213.9,0,0,1-16.86-83.54c0-118.52,96.09-214.61,214.61-214.61a213.7,213.7,0,0,1,120,36.65H378Z" transform="translate(-11.52 -17.99)"/><path class="cls-15" d="M378,278.81v95.13H78v5.88q-4.89-9-8.92-18.53a211.26,211.26,0,0,1-16.65-82.48c0-117,94.87-211.89,211.89-211.89a210.9,210.9,0,0,1,118.48,36.19H378Z" transform="translate(-11.52 -17.99)"/><path class="cls-15" d="M378,278.81v95.13H80.42v4.58q-4.83-8.89-8.81-18.28a208.64,208.64,0,0,1-16.44-81.43c0-115.52,93.66-209.18,209.18-209.18a208.24,208.24,0,0,1,117,35.73H378Z" transform="translate(-11.52 -17.99)"/><path class="cls-16" d="M378,278.81v95.13H82.81v3.29q-4.77-8.78-8.7-18.05a206,206,0,0,1-16.22-80.37c0-114,92.44-206.46,206.46-206.46a205.62,205.62,0,0,1,115.44,35.26H378Z" transform="translate(-11.52 -17.99)"/><path class="cls-17" d="M378,278.81v95.13H85.2v2q-4.71-8.65-8.58-17.81a203.07,203.07,0,0,1-16-79.31c0-112.52,91.22-203.74,203.74-203.74a202.87,202.87,0,0,1,113.92,34.79H378Z" transform="translate(-11.52 -17.99)"/><path class="cls-18" d="M378,278.81v95.13H87.59v.7q-4.65-8.55-8.47-17.58a200.43,200.43,0,0,1-15.8-78.25c0-111,90-201,201-201a200.06,200.06,0,0,1,112.4,34.34q4,2.7,7.88,5.6H378Z" transform="translate(-11.52 -17.99)"/><path class="cls-19" d="M378,278.81v95.13H92.31v3.59c-.79-1.39-1.57-2.78-2.34-4.19Q85.4,364.91,81.62,356A197.8,197.8,0,0,1,66,278.81C66,169.29,154.83,80.5,264.35,80.5a197.43,197.43,0,0,1,110.88,33.87q4,2.67,7.78,5.53h-5Z" transform="translate(-11.52 -17.99)"/><path class="cls-20" d="M378,278.81v95.13H97.07v6.3q-2.44-4-4.71-8.19-4.52-8.32-8.23-17.1a195,195,0,0,1-15.37-76.14c0-108,87.57-195.59,195.59-195.59a194.68,194.68,0,0,1,109.36,33.4q3.9,2.64,7.67,5.46H378Z" transform="translate(-11.52 -17.99)"/><path class="cls-21" d="M378,278.81v95.13H99.4v4.89q-2.41-4-4.65-8.08-4.45-8.19-8.12-16.86a192.24,192.24,0,0,1-15.16-75.08c0-106.52,86.36-192.88,192.88-192.88a191.87,191.87,0,0,1,107.84,32.95q3.85,2.59,7.57,5.37H378Z" transform="translate(-11.52 -17.99)"/><path class="cls-21" d="M378,278.81v95.13H101.72v3.48q-2.39-3.92-4.58-8-4.4-8.08-8-16.63a189.59,189.59,0,0,1-14.94-74c0-105,85.14-190.16,190.16-190.16a189.35,189.35,0,0,1,106.32,32.48q3.79,2.57,7.46,5.3H378Z" transform="translate(-11.52 -17.99)"/><path class="cls-22" d="M378,278.81v95.13H104V376q-2.34-3.86-4.51-7.85-4.34-8-7.89-16.38a186.79,186.79,0,0,1-14.73-73c0-103.52,83.92-187.44,187.44-187.44a186.6,186.6,0,0,1,104.81,32q7.47,5.06,14.43,10.79H378Z" transform="translate(-11.52 -17.99)"/><path class="cls-23" d="M378,278.81v95.13H106.37v.66q-2.33-3.81-4.45-7.73-4.28-7.86-7.78-16.15a184.12,184.12,0,0,1-14.52-71.91c0-102,82.71-184.73,184.73-184.73a183.93,183.93,0,0,1,103.29,31.55q7.37,5,14.22,10.64H378Z" transform="translate(-11.52 -17.99)"/><path class="cls-24" d="M378,278.81v95.13H113.42v6.64a182,182,0,0,1,252.7-252.69q7.26,4.9,14,10.47H378Z" transform="translate(-11.52 -17.99)"/><path class="cls-25" d="M378,278.81v95.13H115.68v5.12A179.29,179.29,0,0,1,364.6,130.14q7.15,4.83,13.8,10.32H378Z" transform="translate(-11.52 -17.99)"/><path class="cls-26" d="M378,278.81v95.13H117.93v3.6A176.57,176.57,0,0,1,363.08,132.39q7.05,4.76,13.59,10.17,3.27,2.7,6.41,5.55H378Z" transform="translate(-11.52 -17.99)"/><path class="cls-27" d="M378,278.81v95.13H120.18V376A173.85,173.85,0,0,1,361.56,134.64q6.94,4.7,13.39,10c2.14,1.77,4.25,3.6,6.3,5.47H378Z" transform="translate(-11.52 -17.99)"/><path class="cls-28" d="M378,278.81v95.13H122.43v.56A171.13,171.13,0,0,1,360,136.9q6.84,4.6,13.18,9.85c2.11,1.74,4.18,3.54,6.21,5.38H378Z" transform="translate(-11.52 -17.99)"/><path class="cls-29" d="M378,278.81v95.13H129.38v5.65c-1.61-2.16-3.18-4.36-4.69-6.6A168.44,168.44,0,0,1,383.45,159.72H378Z" transform="translate(-11.52 -17.99)"/><path class="cls-30" d="M378,278.81v95.13H131.56v4c-1.59-2.12-3.13-4.29-4.62-6.49A165.72,165.72,0,0,1,381.53,161.64H378Z" transform="translate(-11.52 -17.99)"/><path class="cls-31" d="M378,278.81v95.13H133.74v2.4c-1.57-2.09-3.08-4.22-4.55-6.39A163,163,0,0,1,379.61,163.56H378Z" transform="translate(-11.52 -17.99)"/><path class="cls-32" d="M378,278.81v95.13H140.67v6.83q-4.89-5.94-9.22-12.34a160.29,160.29,0,0,1,246.24-203q2.71,2.72,5.31,5.57h-5Z" transform="translate(-11.52 -17.99)"/><path class="cls-33" d="M378,278.81v95.13H142.77V379q-4.82-5.84-9.07-12.13A157.57,157.57,0,0,1,375.77,167.4c1.78,1.78,3.52,3.61,5.21,5.47h-3Z" transform="translate(-11.52 -17.99)"/><path class="cls-34" d="M378,278.81v95.13H144.86v3.37q-4.73-5.73-8.91-11.92a154.86,154.86,0,0,1,237.9-196.07q5.25,5.25,10,11H378Z" transform="translate(-11.52 -17.99)"/><path class="cls-35" d="M378,278.81v95.13H147v1.64q-4.65-5.62-8.76-11.71A152.14,152.14,0,0,1,371.93,171.24q5.16,5.16,9.81,10.81H378Z" transform="translate(-11.52 -17.99)"/><path class="cls-36" d="M378,278.81v95.05h1.65q-2.28,2.76-4.7,5.42v-5.34H153.75v5.34c-1.6-1.77-3.17-3.58-4.69-5.42q-4.58-5.53-8.6-11.51A149.42,149.42,0,0,1,370,173.16q5.07,5.07,9.65,10.61H378Z" transform="translate(-11.52 -17.99)"/><path class="cls-37" d="M378,278.81v87.78h3.91q-2.12,2.82-4.36,5.54t-4.61,5.32v-3.51H155.76v3.51q-2.35-2.61-4.61-5.32-4.49-5.43-8.44-11.3A146.7,146.7,0,0,1,368.08,175.08q5,5,9.47,10.42,2.25,2.72,4.36,5.54H378Z" transform="translate(-11.52 -17.99)"/><path class="cls-38" d="M378,278.81v80.51h5.74a143.72,143.72,0,0,1-17.58,21.3v-6.68H162.54v6.68a144,144,0,1,1,221.2-182.31H378Z" transform="translate(-11.52 -17.99)"/><path class="cls-39" d="M378,278.81v79h3.49a142.37,142.37,0,0,1-17.25,20.9v-4.76H164.46v4.76A141.26,141.26,0,1,1,364.24,178.93a142.37,142.37,0,0,1,17.25,20.9H378Z" transform="translate(-11.52 -17.99)"/><path class="cls-40" d="M378,278.81v77.47h1.24a139.25,139.25,0,0,1-16.92,20.5v-2.84H166.38v2.84A138.55,138.55,0,1,1,379.24,201.35H378Z" transform="translate(-11.52 -17.99)"/><path class="cls-41" d="M378,278.81v64.75h5.79q-3.14,5.78-6.8,11.2a136.88,136.88,0,0,1-16.59,20.1v-.92H168.31v.92A135.83,135.83,0,1,1,360.4,182.77,136.88,136.88,0,0,1,377,202.87q3.66,5.41,6.8,11.2H378Z" transform="translate(-11.52 -17.99)"/><path class="cls-42" d="M378,278.81v63.45h3.4q-3.07,5.67-6.67,11a133.58,133.58,0,0,1-16.25,19.7q-2.26,2.26-4.62,4.41v-3.41h-179v3.41q-2.37-2.14-4.62-4.41a133.11,133.11,0,1,1,204.5-168.55q3.6,5.31,6.67,11H378Z" transform="translate(-11.52 -17.99)"/><path class="cls-43" d="M378,278.81v50.76h6.5A130.62,130.62,0,0,1,356.56,371q-4.43,4.43-9.26,8.42v-5.5H181.41v5.5q-4.83-4-9.26-8.42a130.4,130.4,0,1,1,212.35-143H378Z" transform="translate(-11.52 -17.99)"/><path class="cls-44" d="M378,278.81v49.7h4a127.85,127.85,0,0,1-27.36,40.59q-4.33,4.33-9.07,8.24v-3.4H183.14v3.4q-4.74-3.9-9.07-8.24A127.68,127.68,0,1,1,382,229.12h-4Z" transform="translate(-11.52 -17.99)"/><path class="cls-45" d="M378,278.81v48.65h1.5a125.42,125.42,0,0,1-26.78,39.72c-2.83,2.82-5.79,5.52-8.88,8.06v-1.3h-159v1.3c-3.08-2.54-6-5.24-8.87-8.06a125,125,0,1,1,203.51-137H378Z" transform="translate(-11.52 -17.99)"/><path class="cls-46" d="M378,278.81v24.64h6.12A120.87,120.87,0,0,1,377,326.4a122.67,122.67,0,0,1-44.29,53.78v-6.24H196v6.24a122.24,122.24,0,1,1,181-149,120.87,120.87,0,0,1,7.13,23H378Z" transform="translate(-11.52 -17.99)"/><path class="cls-47" d="M383.88,278.81a119.61,119.61,0,0,1-52.7,99.12v-4H197.52v4a119.54,119.54,0,1,1,186.36-99.12Z" transform="translate(-11.52 -17.99)"/><path class="cls-48" d="M381.17,278.81a116.91,116.91,0,0,1-51.51,96.87v-1.74H199v1.74a118.3,118.3,0,0,1-17.29-14.26,116.82,116.82,0,1,1,199.42-82.61Z" transform="translate(-11.52 -17.99)"/><path class="cls-49" d="M378.45,278.81a114.32,114.32,0,0,1-50.3,94.62q-4.56,3.07-9.41,5.71v-5.2H210v5.2q-4.86-2.62-9.41-5.71a114.1,114.1,0,1,1,177.89-94.62Z" transform="translate(-11.52 -17.99)"/><path class="cls-50" d="M375.73,278.81a111.51,111.51,0,0,1-49.1,92.36q-4.45,3-9.19,5.58v-2.81H211.26v2.81c-3.15-1.71-6.22-3.57-9.18-5.58a111.38,111.38,0,1,1,173.65-92.36Z" transform="translate(-11.52 -17.99)"/><path class="cls-51" d="M373,278.81a108.8,108.8,0,0,1-66.37,100.13v-5H222.06v5A108.68,108.68,0,1,1,373,278.81Z" transform="translate(-11.52 -17.99)"/><path class="cls-52" d="M370.3,278.81a106.08,106.08,0,0,1-64.71,97.63v-2.5H223.11v2.5A106,106,0,1,1,370.3,278.81Z" transform="translate(-11.52 -17.99)"/><path class="cls-53" d="M367.58,278.81A103.22,103.22,0,0,1,285.16,380v-6H243.55v6a103.24,103.24,0,1,1,124-101.14Z" transform="translate(-11.52 -17.99)"/><circle class="cls-54" cx="252.84" cy="260.82" r="100.51"/><circle class="cls-55" cx="252.84" cy="260.82" r="97.8"/><circle class="cls-56" cx="252.84" cy="260.82" r="95.08"/><circle class="cls-57" cx="252.84" cy="260.82" r="92.37"/><circle class="cls-58" cx="252.84" cy="260.82" r="89.65"/><circle class="cls-59" cx="252.84" cy="260.82" r="86.93"/><circle class="cls-60" cx="252.84" cy="260.82" r="84.22"/><circle class="cls-61" cx="252.84" cy="260.82" r="81.5"/><circle class="cls-62" cx="252.84" cy="260.82" r="78.78"/><circle class="cls-63" cx="252.84" cy="260.82" r="76.07"/><circle class="cls-64" cx="252.84" cy="260.82" r="73.35"/><circle class="cls-65" cx="252.84" cy="260.82" r="70.63"/><circle class="cls-66" cx="252.84" cy="260.82" r="67.92"/><circle class="cls-67" cx="252.84" cy="260.82" r="65.2"/><circle class="cls-68" cx="252.84" cy="260.82" r="62.48"/><circle class="cls-69" cx="252.84" cy="260.82" r="59.77"/><circle class="cls-70" cx="252.84" cy="260.82" r="57.05"/><circle class="cls-71" cx="252.84" cy="260.82" r="54.33"/><circle class="cls-72" cx="252.84" cy="260.82" r="51.62"/><circle class="cls-73" cx="252.84" cy="260.82" r="48.9"/><circle class="cls-74" cx="252.84" cy="260.82" r="46.18"/><circle class="cls-75" cx="252.84" cy="260.82" r="43.47"/><circle class="cls-76" cx="252.84" cy="260.82" r="40.75"/><circle class="cls-77" cx="252.84" cy="260.82" r="38.03"/><circle class="cls-78" cx="252.84" cy="260.82" r="35.32"/><circle class="cls-79" cx="252.84" cy="260.82" r="32.6"/><circle class="cls-80" cx="252.84" cy="260.82" r="29.88"/><circle class="cls-81" cx="252.84" cy="260.82" r="27.17"/><circle class="cls-82" cx="252.84" cy="260.82" r="24.45"/><circle class="cls-83" cx="252.84" cy="260.82" r="21.73"/><circle class="cls-84" cx="252.84" cy="260.82" r="19.02"/><circle class="cls-85" cx="252.84" cy="260.82" r="16.3"/><circle class="cls-86" cx="252.84" cy="260.82" r="13.58"/><circle class="cls-87" cx="252.84" cy="260.82" r="10.87"/><circle class="cls-88" cx="252.84" cy="260.82" r="8.15"/><circle class="cls-89" cx="252.84" cy="260.82" r="5.43"/><circle class="cls-90" cx="252.84" cy="260.82" r="2.72"/></g><path class="cls-91" d="M176.38,371.64c-49.12,0-89.46-14.45-116.89-41.94C32.33,302.48,17.94,262.48,19,217.08c1-44.32,26.44-95.47,66.39-133.49,40.83-38.87,91.24-59.54,142-58.17C278.3,26.79,317.19,42,343,70.75,366.21,96.68,378,132.45,378,177.06c0,42.85-20.26,90.68-54.19,127.94-38.11,41.85-88.62,65.5-142.23,66.59C179.84,371.63,178.1,371.64,176.38,371.64ZM222.64,27.36C174,27.36,125.92,47.73,86.72,85,47.15,122.7,22,173.31,21,217.12,20,262,34.13,301.45,60.9,328.28c28,28.07,69.72,42.35,120.64,41.31C302,367.13,376,255.79,376,177.06,376,83.13,323.19,30,227.29,27.42Q225,27.36,222.64,27.36Z" transform="translate(-11.52 -17.99)"/><g class="cls-92"><rect class="cls-3" x="24.16" y="21.56" width="325.57" height="322.46"/><path class="cls-3" d="M34.68,38.55H362.25v207.2h2.58A233.4,233.4,0,0,1,228,363.14V363H91.9v3.5A240.76,240.76,0,0,1,47,349.29q-5.51-2.76-10.79-5.76c-1.76-1-3.51-2-5.23-3.06h3.71Z" transform="translate(-11.52 -17.99)"/><path class="cls-3" d="M34.68,38.55H362.11v-3c1.69,3.35,3.31,6.74,4.83,10.16h-4.69v199h.46A231.08,231.08,0,0,1,227.23,360.9q-10.68,3.48-21.67,5.93V363h-113v1.23A238.41,238.41,0,0,1,48,347.19q-5.43-2.73-10.67-5.71c-1.75-1-3.48-2-5.19-3h2.5Z" transform="translate(-11.52 -17.99)"/><path class="cls-3" d="M34.68,38.55H360v-2q2.5,5,4.78,10.06h-2.53V232.88h3.39q-2.37,5.4-5.05,10.74a228.75,228.75,0,0,1-134.11,115,233.46,233.46,0,0,1-43.42,9.68V363H138.19v6.57A233.94,233.94,0,0,1,49.1,345.09q-10.77-5.41-20.73-11.75h6.31Z" transform="translate(-11.52 -17.99)"/><path class="cls-3" d="M34.68,38.55h323.2v-.93q2.49,4.92,4.73,10h-.36V221.17h5.63A227.08,227.08,0,0,1,225.72,356.42,230.76,230.76,0,0,1,50.15,343a234.1,234.1,0,0,1-20.51-11.63h5Z" transform="translate(-11.52 -17.99)"/><path class="cls-3" d="M34.68,38.55H353.24V33.82c.86,1.6,1.7,3.22,2.52,4.84q2.48,4.88,4.69,9.86,4.44,10,7.92,20.3h-6.12v151.5h3.41a226.75,226.75,0,0,1-9.32,21.16A224,224,0,0,1,225,354.18a228.37,228.37,0,0,1-173.76-13.3q-10.55-5.29-20.31-11.51h3.78Z" transform="translate(-11.52 -17.99)"/><path class="cls-4" d="M34.68,38.55H351.15V34.91c.85,1.59,1.69,3.19,2.5,4.8q2.43,4.83,4.63,9.76,4.41,9.86,7.85,20.08h-3.88V219.48h1.19a227,227,0,0,1-9.22,20.94,221.71,221.71,0,0,1-130,111.52A226,226,0,0,1,52.27,338.78q-10.44-5.25-20.1-11.39h2.51Z" transform="translate(-11.52 -17.99)"/><path class="cls-4" d="M34.68,38.85v-.3H349.06V36c.84,1.57,1.67,3.16,2.47,4.75q2.42,4.77,4.59,9.65,4.35,9.75,7.76,19.87h-1.63V197.49h5.81A220,220,0,0,1,223.46,349.7a223.67,223.67,0,0,1-170.14-13Q43,331.49,33.44,325.41h1.24Z" transform="translate(-11.52 -17.99)"/><path class="cls-5" d="M34.68,39.92V38.55H344.42V32.46A221.4,221.4,0,0,1,361.63,71Q365,81,367.39,91.3h-5.14V196.87h3.51a217.54,217.54,0,0,1-143,150.59A221.29,221.29,0,0,1,54.38,334.58q-10.22-5.15-19.67-11.15-2.37-1.5-4.68-3.06h4.65Z" transform="translate(-11.52 -17.99)"/><path class="cls-5" d="M34.68,41V38.55H342.35V33.61a218.64,218.64,0,0,1,26.49,78.73h-6.59v83.91h1.22A215.26,215.26,0,0,1,222,345.22,218.88,218.88,0,0,1,55.44,332.47a220.73,220.73,0,0,1-19.46-11q-2.34-1.47-4.63-3h3.33Z" transform="translate(-11.52 -17.99)"/><path class="cls-6" d="M34.68,42.05v-3.5H340.29V34.76a216,216,0,0,1,26.2,77.87h-4.24v41.44H368A212.7,212.7,0,0,1,221.2,343a216.47,216.47,0,0,1-164.71-12.6q-10-5-19.25-10.91-4.62-2.94-9-6.07h6.49Z" transform="translate(-11.52 -17.99)"/><path class="cls-7" d="M34.68,43.12V38.55H338.23V35.9a214.94,214.94,0,0,1,16.66,37.31,211.92,211.92,0,0,1,10.71,80.7A210.35,210.35,0,0,1,220.45,340.73a214.07,214.07,0,0,1-162.9-12.46q-9.88-5-19-10.79-4.57-2.91-8.95-6h5.12Z" transform="translate(-11.52 -17.99)"/><path class="cls-7" d="M34.68,44.19V38.55H336.17v-1.5a211.61,211.61,0,0,1,16.47,36.89,209.67,209.67,0,0,1,10.6,79.8A208,208,0,0,1,219.69,338.49,211.73,211.73,0,0,1,58.6,326.17q-9.78-4.92-18.82-10.67-4.53-2.88-8.86-5.94h3.76Z" transform="translate(-11.52 -17.99)"/><path class="cls-8" d="M34.68,45.25v-6.7H334.1V38.2a209,209,0,0,1,16.29,36.47A205.61,205.61,0,0,1,218.94,336.25,209.39,209.39,0,0,1,59.66,324.07Q50,319.21,41.05,313.52q-4.47-2.85-8.76-5.88h2.39Z" transform="translate(-11.52 -17.99)"/><path class="cls-9" d="M34.68,46.32V38.55H329.54V35.06c.85,1.42,1.69,2.85,2.5,4.28a207.4,207.4,0,0,1,16.11,36.07,203.29,203.29,0,0,1-130,258.6A207,207,0,0,1,60.72,322a211.46,211.46,0,0,1-18.41-10.44q-4.41-2.8-8.65-5.8h1Z" transform="translate(-11.52 -17.99)"/><path class="cls-10" d="M34.68,47.39V38.55H324.94V32.07q2.63,4.16,5,8.42A205.49,205.49,0,0,1,345.9,76.14,200.93,200.93,0,0,1,217.43,331.77,204.57,204.57,0,0,1,61.77,319.86a207.85,207.85,0,0,1-18.19-10.31q-4.36-2.78-8.55-5.74c-1.4-1-2.78-2-4.14-3h3.79Z" transform="translate(-11.52 -17.99)"/><path class="cls-11" d="M34.68,48.45v-9.9H322.93V33.31q2.6,4.11,5,8.33a202.49,202.49,0,0,1,15.73,35.23A198.36,198.36,0,0,1,333,229.75c-49.59,98.67-170.55,138.08-270.17,88a205.12,205.12,0,0,1-34.53-21.9h6.38Z" transform="translate(-11.52 -17.99)"/><path class="cls-12" d="M34.68,49.52v-11H320.93v-4c1.71,2.7,3.35,5.45,4.92,8.22A200,200,0,0,1,341.4,77.6a196,196,0,0,1-10.52,151.09c-49,97.51-168.54,136.45-267,87A202,202,0,0,1,29.76,294h4.92Z" transform="translate(-11.52 -17.99)"/><path class="cls-12" d="M34.68,50.58v-12H318.93V35.8c1.68,2.68,3.31,5.39,4.86,8.13a198.52,198.52,0,0,1,15.37,34.4,193.72,193.72,0,0,1-10.41,149.29C280.34,324,162.22,362.44,64.94,313.56a199.68,199.68,0,0,1-33.72-21.39h3.46Z" transform="translate(-11.52 -17.99)"/><path class="cls-13" d="M34.68,51.65V38.55H316.92v-1.5q2.5,4,4.81,8a195.7,195.7,0,0,1,15.18,34,191.33,191.33,0,0,1-10.28,147.48C278.8,321.74,162.11,359.75,66,311.46a197.12,197.12,0,0,1-33.31-21.13h2Z" transform="translate(-11.52 -17.99)"/><path class="cls-13" d="M34.68,52.72V38.55H314.92v-.26q2.47,3.91,4.75,7.93a193.47,193.47,0,0,1,15,33.58,189,189,0,0,1-10.15,145.69c-47.25,94-162.52,131.57-257.46,83.86a195.09,195.09,0,0,1-32.9-20.86h.53Z" transform="translate(-11.52 -17.99)"/><path class="cls-14" d="M34.68,53.78V38.55H307.84V31.91q5.27,7.52,9.76,15.46a190.19,190.19,0,0,1,14.81,33.16,186.73,186.73,0,0,1-10,143.89c-46.67,92.87-160.51,130-254.28,82.83a192.43,192.43,0,0,1-32.5-20.61q-3.72-2.92-7.27-6h6.34Z" transform="translate(-11.52 -17.99)"/><path class="cls-14" d="M34.68,54.85V38.55H305.9v-5.3q5.21,7.43,9.64,15.27a188.32,188.32,0,0,1,14.63,32.74,184.42,184.42,0,0,1-9.9,142.09c-46.09,91.71-158.51,128.33-251.1,81.8a191,191,0,0,1-32.1-20.35q-3.68-2.9-7.17-5.93h4.78Z" transform="translate(-11.52 -17.99)"/><path class="cls-15" d="M34.68,55.92V38.55H304v-4c3.42,4.88,6.6,9.92,9.52,15.07A185.42,185.42,0,0,1,327.92,82a182.09,182.09,0,0,1-9.78,140.3c-45.5,90.54-156.5,126.7-247.92,80.76A187.93,187.93,0,0,1,38.54,283q-3.63-2.85-7.09-5.85h3.23Z" transform="translate(-11.52 -17.99)"/><path class="cls-15" d="M34.68,57V38.55H302V35.93q5.07,7.23,9.4,14.88a183.27,183.27,0,0,1,14.25,31.92A179.7,179.7,0,0,1,316,221.22C271.1,310.6,161.53,346.3,71.28,301A185.46,185.46,0,0,1,40,281.11q-3.59-2.82-7-5.78h1.68Z" transform="translate(-11.52 -17.99)"/><path class="cls-16" d="M34.68,58.05V38.55h265.4V37.27q5,7.14,9.28,14.69a180.69,180.69,0,0,1,14.06,31.5,177.35,177.35,0,0,1-9.52,136.69c-44.34,88.23-152.49,123.46-241.56,78.69a182.14,182.14,0,0,1-30.88-19.58q-7.07-5.55-13.48-11.7h6.7Z" transform="translate(-11.52 -17.99)"/><path class="cls-17" d="M34.68,59.12V38.55H293V31.68q2.66,3.42,5.12,6.93,4.94,7.05,9.15,14.49a179.3,179.3,0,0,1,13.89,31.09,175.1,175.1,0,0,1-9.4,134.9C268,306.15,161.3,340.92,73.39,296.74a180.37,180.37,0,0,1-30.47-19.32q-7-5.48-13.3-11.55h5.06Z" transform="translate(-11.52 -17.99)"/><path class="cls-18" d="M34.68,60.18V38.55H291.15V33.12q2.61,3.36,5.05,6.83c3.24,4.63,6.26,9.41,9,14.3a176.3,176.3,0,0,1,13.7,30.67A172.7,172.7,0,0,1,309.65,218c-43.16,85.9-148.47,120.21-235.2,76.62a178.21,178.21,0,0,1-30.06-19.06q-6.89-5.41-13.13-11.4h3.42Z" transform="translate(-11.52 -17.99)"/><path class="cls-19" d="M34.68,61.25V38.55h254.6v-4q2.58,3.31,5,6.74,4.8,6.85,8.91,14.11a173.48,173.48,0,0,1,13.51,30.26A170.36,170.36,0,0,1,307.53,217C265,301.7,161.06,335.54,75.5,292.54a176.5,176.5,0,0,1-29.65-18.81q-6.8-5.33-13-11.24h1.78Z" transform="translate(-11.52 -17.99)"/><path class="cls-20" d="M34.68,62.32V38.55H287.41V36q2.54,3.27,4.91,6.65,4.74,6.76,8.79,13.91a172,172,0,0,1,13.32,29.85,168,168,0,0,1-9,129.5c-42,83.58-144.46,117-228.85,74.55a173.8,173.8,0,0,1-29.25-18.55q-6.69-5.26-12.77-11.09h.14Z" transform="translate(-11.52 -17.99)"/><path class="cls-21" d="M34.68,63.38V38.55H285.54V37.41c1.66,2.15,3.28,4.34,4.84,6.56Q295,50.65,299,57.69a169.51,169.51,0,0,1,13.15,29.43,165.72,165.72,0,0,1-8.9,127.7c-41.42,82.42-142.46,115.33-225.67,73.52A171.15,171.15,0,0,1,48.77,270q-6.6-5.19-12.59-10.93-3-2.87-5.82-5.87h4.32Z" transform="translate(-11.52 -17.99)"/><path class="cls-21" d="M34.68,64.45V38.55H278.56v-6a166.47,166.47,0,0,1,31.38,55.26,163.4,163.4,0,0,1-8.77,125.9C260.33,295,160.72,327.46,78.67,286.23a168.22,168.22,0,0,1-28.43-18q-6.52-5.11-12.42-10.78c-2-1.89-3.88-3.81-5.74-5.78h2.6Z" transform="translate(-11.52 -17.99)"/><path class="cls-22" d="M34.68,65.52v-27H276.76V34.11a164.08,164.08,0,0,1,30.93,54.47A161,161,0,0,1,299,212.69c-40.25,80.1-138.44,112.08-219.31,71.44a164.73,164.73,0,0,1-51.27-40h6.22Z" transform="translate(-11.52 -17.99)"/><path class="cls-23" d="M34.68,66.58v-28H275V35.63a161.86,161.86,0,0,1,30.47,53.69,158.65,158.65,0,0,1-8.52,122.3C257.25,290.56,160.49,322.08,80.79,282a162.23,162.23,0,0,1-50.53-39.46h4.42Z" transform="translate(-11.52 -17.99)"/><path class="cls-24" d="M34.68,67.65V38.55H273.17V37.16a159.54,159.54,0,0,1,30,52.89,156.4,156.4,0,0,1-8.4,120.51c-39.09,77.77-134.43,108.83-213,69.37a160.09,160.09,0,0,1-49.78-38.88h2.62Z" transform="translate(-11.52 -17.99)"/><path class="cls-25" d="M34.68,68.71V38.55H266.25V33c1.76,1.85,3.46,3.75,5.12,5.68A157.15,157.15,0,0,1,301,90.78a154,154,0,0,1-8.27,118.71C254.17,286.1,160.25,316.7,82.9,277.83a157.59,157.59,0,0,1-49-38.3h.82Z" transform="translate(-11.52 -17.99)"/><path class="cls-26" d="M34.68,69.78V43.66H31.31a147,147,0,0,1,10-11.39v6.28H264.53V34.6q2.6,2.74,5,5.6A154.77,154.77,0,0,1,298.7,91.51a151.68,151.68,0,0,1-8.15,116.91C252.64,283.88,160.14,314,84,275.72A155.16,155.16,0,0,1,35.66,238q-2.44-2.85-4.74-5.8h3.76Z" transform="translate(-11.52 -17.99)"/><path class="cls-27" d="M34.68,70.85V45.12h-1.5A148.29,148.29,0,0,1,43,33.91v4.64H262.81V36.21q2.55,2.7,5,5.51a152.28,152.28,0,0,1,28.68,50.52,149.35,149.35,0,0,1-8,115.12C251.1,281.65,160,311.32,85,273.62a152.55,152.55,0,0,1-47.55-37.14q-4.82-5.61-9-11.63h6.25Z" transform="translate(-11.52 -17.99)"/><path class="cls-28" d="M34.68,71.91V52.52H30.59q2.16-3,4.45-5.93,4.59-5.79,9.67-11v3H255.92V32.62q5.31,5.09,10.05,10.62A150,150,0,0,1,294.21,93a147,147,0,0,1-7.9,113.31c-36.75,73.13-126.4,102.34-200.24,65.23A150.34,150.34,0,0,1,39.26,235c-3.16-3.68-6.13-7.51-8.89-11.45h4.31Z" transform="translate(-11.52 -17.99)"/><path class="cls-29" d="M34.68,73V60H28.41a144,144,0,0,1,18-22.8v1.35H254.28V34.31q5.23,5,9.89,10.45A147.56,147.56,0,0,1,292,93.71a144.7,144.7,0,0,1-7.77,111.51c-36.17,72-124.4,100.72-197.07,64.2a148.07,148.07,0,0,1-46.07-36Q36.4,228,32.31,222.17h2.37Z" transform="translate(-11.52 -17.99)"/><path class="cls-30" d="M34.68,74.05V61.27H30.41a143.64,143.64,0,0,1,8.36-11.74q4.44-5.61,9.37-10.69c1.64-1.69,3.31-3.33,5-4.93v4.64H252.64V36q5.14,4.92,9.73,10.29a145,145,0,0,1,27.34,48.15,142.37,142.37,0,0,1-7.64,109.72C246.48,275,159.68,303.25,88.18,267.32a145.86,145.86,0,0,1-45.33-35.4q-4.58-5.35-8.6-11.09h.43Z" transform="translate(-11.52 -17.99)"/><path class="cls-31" d="M34.68,75.11V62.55H32.42A139.36,139.36,0,0,1,49.85,40.49Q52.27,38,54.8,35.63v2.92H251v-.86q5.06,4.85,9.57,10.12a142.55,142.55,0,0,1,26.89,47.36,140,140,0,0,1-7.52,107.92c-35,69.65-120.38,97.46-190.7,62.12A142.53,142.53,0,0,1,28.87,207.9h5.81Z" transform="translate(-11.52 -17.99)"/><path class="cls-32" d="M34.68,76.18V63.83h-.26a132.91,132.91,0,0,1,8.09-11.36,136.25,136.25,0,0,1,19-19.62v5.7H244.26V34.72q2.63,2.28,5.1,4.66,5,4.77,9.41,9.95a140.48,140.48,0,0,1,26.45,46.58A137.67,137.67,0,0,1,277.82,202c-34.42,68.49-118.38,95.84-187.53,61.09a140.18,140.18,0,0,1-59.36-56.36h3.75Z" transform="translate(-11.52 -17.99)"/><path class="cls-33" d="M29.53,77.25A134.85,134.85,0,0,1,63,34.65v3.9h174.4V32.14A137.85,137.85,0,0,1,283,96.64,135.34,135.34,0,0,1,275.7,201c-33.84,67.33-116.37,94.21-184.35,60A138,138,0,0,1,33,205.61h1.69V77.25Z" transform="translate(-11.52 -17.99)"/><path class="cls-34" d="M31.65,78.31A132.34,132.34,0,0,1,64.59,36.46v2.09H236V34a135.43,135.43,0,0,1,44.75,63.39,133.07,133.07,0,0,1-7.14,102.52c-33.25,66.17-114.37,92.59-181.18,59a135.7,135.7,0,0,1-57.35-54.45q-3.19-5.66-5.84-11.58h5.47V78.31Z" transform="translate(-11.52 -17.99)"/><path class="cls-35" d="M33.77,79.38A130.28,130.28,0,0,1,66.13,38.26v.29H234.51V35.82a133.11,133.11,0,0,1,44,62.28,130.67,130.67,0,0,1-7,100.72c-32.66,65-112.35,91-178,58a133.17,133.17,0,0,1-56.34-53.5c-2.1-3.7-4-7.5-5.75-11.37h3.31V79.38Z" transform="translate(-11.52 -17.99)"/><path class="cls-36" d="M35.89,80.45A127.74,127.74,0,0,1,67.68,40.06c3.21-2.72,6.55-5.27,10-7.64v6.13H233.05v-.88a130.65,130.65,0,0,1,43.17,61.16,128.38,128.38,0,0,1-6.89,98.93C237.25,261.6,159,287.1,94.52,254.71A130.9,130.9,0,0,1,29,179.37h5.68V92.57H30.55A132.08,132.08,0,0,1,35.89,80.45Z" transform="translate(-11.52 -17.99)"/><path class="cls-37" d="M38,81.51A125.64,125.64,0,0,1,69.22,41.86q4.74-4,9.81-7.5v4.19h142V32.07q5.49,3.49,10.52,7.44A128.55,128.55,0,0,1,274,99.57a126,126,0,0,1-6.77,97.12c-31.5,62.69-108.35,87.72-171.64,55.91a128.45,128.45,0,0,1-64.32-74h3.43V105.56H28.85A126.52,126.52,0,0,1,38,81.51Z" transform="translate(-11.52 -17.99)"/><path class="cls-38" d="M40.14,82.58A123.29,123.29,0,0,1,70.77,43.66c3.09-2.62,6.31-5.07,9.63-7.36v2.25H219.81V34.06a123.18,123.18,0,0,1,10.31,7.3,125.8,125.8,0,0,1,41.61,58.94,123.68,123.68,0,0,1-6.64,95.32c-30.92,61.53-106.34,86.1-168.46,54.88a126.14,126.14,0,0,1-63.14-72.59h1.19V106.18H31.14A123.2,123.2,0,0,1,40.14,82.58Z" transform="translate(-11.52 -17.99)"/><path class="cls-39" d="M42.26,83.65A121,121,0,0,1,91.81,32v6.54H218.54V36q5.28,3.36,10.12,7.16A123.48,123.48,0,0,1,269.48,101,121.4,121.4,0,0,1,263,194.56C232.63,254.92,158.63,279,97.69,248.4A123.48,123.48,0,0,1,29.55,130.55,120.83,120.83,0,0,1,42.26,83.65Z" transform="translate(-11.52 -17.99)"/><path class="cls-40" d="M44.38,84.71A118.58,118.58,0,0,1,93,34.07v4.48h113.5V31.91c59.78,30,84.12,102.38,54.36,161.58S158.52,276.34,98.74,246.3A121.38,121.38,0,0,1,38,176.44,119,119,0,0,1,44.38,84.71Z" transform="translate(-11.52 -17.99)"/><path class="cls-41" d="M46.5,85.78A116.32,116.32,0,0,1,94.15,36.13v2.42H205.43V34c58.6,29.45,82.46,100.37,53.29,158.42S158.4,273.65,99.8,244.2a119,119,0,0,1-59.56-68.49A116.68,116.68,0,0,1,46.5,85.78Z" transform="translate(-11.52 -17.99)"/><path class="cls-42" d="M48.62,86.84a113.94,113.94,0,0,1,46.7-48.65v.36H204.37V36.11C261.8,65,285.18,134.48,256.6,191.36S158.29,271,100.86,242.09A116.61,116.61,0,0,1,42.48,175,114.39,114.39,0,0,1,48.62,86.84Z" transform="translate(-11.52 -17.99)"/><path class="cls-43" d="M50.75,87.91a112,112,0,0,1,65.68-56.35v7h86.88v-.34c56.26,28.27,79.17,96.36,51.17,152.08s-96.31,78-152.57,49.7a114.16,114.16,0,0,1-57.18-65.75A112,112,0,0,1,50.75,87.91Z" transform="translate(-11.52 -17.99)"/><path class="cls-44" d="M52.87,89A109.7,109.7,0,0,1,117.19,33.8v4.75h64V32.22a113.61,113.61,0,0,1,21.11,8.09c55.08,27.69,77.51,94.36,50.1,148.92S158.05,265.57,103,237.89a111.81,111.81,0,0,1-56-64.38A109.65,109.65,0,0,1,52.87,89Z" transform="translate(-11.52 -17.99)"/><path class="cls-45" d="M55,90a107.31,107.31,0,0,1,63-54v2.5h62.6V34.49a111,111,0,0,1,20.66,7.93c53.91,27.09,75.87,92.34,49,145.74S157.94,262.88,104,235.79,28.16,143.44,55,90Z" transform="translate(-11.52 -17.99)"/><path class="cls-46" d="M57.11,91.11a105,105,0,0,1,61.58-52.82v.26h40.55V33.27a107.39,107.39,0,0,1,40.9,11.25c52.75,26.5,74.22,90.34,48,142.57s-90.29,73.1-143,46.6S30.86,143.35,57.11,91.11Z" transform="translate(-11.52 -17.99)"/><path class="cls-47" d="M59.24,92.18a102.64,102.64,0,0,1,60.21-51.65,104.65,104.65,0,0,1,79.64,6.09C250.66,72.53,271.66,135,246,186s-88.28,71.47-139.85,45.55S33.57,143.25,59.24,92.18Z" transform="translate(-11.52 -17.99)"/><path class="cls-48" d="M61.36,93.24A100.34,100.34,0,0,1,120.2,42.77,102.31,102.31,0,0,1,198,48.72C248.43,74.05,269,135,243.87,185s-86.28,69.85-136.68,44.52S36.27,143.16,61.36,93.24Z" transform="translate(-11.52 -17.99)"/><path class="cls-49" d="M63.48,94.31A98,98,0,0,1,121,45a99.92,99.92,0,0,1,76,5.81c49.22,24.74,69.27,84.32,44.76,133.07s-84.26,68.23-133.49,43.49S39,143.07,63.48,94.31Z" transform="translate(-11.52 -17.99)"/><path class="cls-50" d="M65.6,95.38a95.68,95.68,0,0,1,56.11-48.13,97.53,97.53,0,0,1,74.21,5.67c48.05,24.15,67.62,82.31,43.7,129.91s-82.26,66.6-130.31,42.45S41.68,143,65.6,95.38Z" transform="translate(-11.52 -17.99)"/><path class="cls-51" d="M67.72,96.44a93.38,93.38,0,0,1,54.74-46.95A95.14,95.14,0,0,1,194.86,55c46.88,23.56,66,80.3,42.64,126.73s-80.26,65-127.14,41.42S44.39,142.88,67.72,96.44Z" transform="translate(-11.52 -17.99)"/><ellipse class="cls-52" cx="152.61" cy="139.1" rx="91.74" ry="92.63" transform="translate(-51.72 195.01) rotate(-63.32)"/><ellipse class="cls-53" cx="152.61" cy="139.1" rx="89.39" ry="90.25" transform="translate(-51.72 195.01) rotate(-63.32)"/><ellipse class="cls-54" cx="152.61" cy="139.1" rx="87.04" ry="87.88" transform="translate(-51.72 195.01) rotate(-63.32)"/><ellipse class="cls-55" cx="152.61" cy="139.1" rx="84.68" ry="85.5" transform="translate(-51.72 195.01) rotate(-63.32)"/><ellipse class="cls-56" cx="152.61" cy="139.1" rx="82.33" ry="83.13" transform="translate(-51.72 195.01) rotate(-63.32)"/><ellipse class="cls-57" cx="152.61" cy="139.1" rx="79.98" ry="80.75" transform="translate(-51.72 195.01) rotate(-63.32)"/><ellipse class="cls-58" cx="152.61" cy="139.1" rx="77.63" ry="78.38" transform="translate(-51.72 195.01) rotate(-63.32)"/><ellipse class="cls-59" cx="152.61" cy="139.1" rx="75.28" ry="76" transform="translate(-51.72 195.01) rotate(-63.32)"/><ellipse class="cls-60" cx="152.61" cy="139.1" rx="72.92" ry="73.63" transform="translate(-51.72 195.01) rotate(-63.32)"/><ellipse class="cls-61" cx="152.61" cy="139.1" rx="70.57" ry="71.25" transform="translate(-51.72 195.01) rotate(-63.32)"/><ellipse class="cls-62" cx="152.61" cy="139.1" rx="68.22" ry="68.88" transform="translate(-51.72 195.01) rotate(-63.32)"/><ellipse class="cls-63" cx="152.61" cy="139.1" rx="65.87" ry="66.5" transform="translate(-51.72 195.01) rotate(-63.32)"/><ellipse class="cls-64" cx="152.61" cy="139.1" rx="63.51" ry="64.13" transform="translate(-51.72 195.01) rotate(-63.32)"/><ellipse class="cls-65" cx="152.61" cy="139.1" rx="61.16" ry="61.75" transform="translate(-51.72 195.01) rotate(-63.32)"/><ellipse class="cls-66" cx="152.61" cy="139.1" rx="58.81" ry="59.38" transform="translate(-51.72 195.01) rotate(-63.32)"/><ellipse class="cls-67" cx="152.61" cy="139.1" rx="56.46" ry="57" transform="translate(-51.72 195.01) rotate(-63.32)"/><ellipse class="cls-68" cx="152.61" cy="139.1" rx="54.1" ry="54.63" transform="translate(-51.72 195.01) rotate(-63.32)"/><ellipse class="cls-69" cx="152.61" cy="139.1" rx="51.75" ry="52.25" transform="translate(-51.72 195.01) rotate(-63.32)"/><ellipse class="cls-70" cx="152.61" cy="139.1" rx="49.4" ry="49.88" transform="translate(-51.72 195.01) rotate(-63.32)"/><ellipse class="cls-71" cx="152.61" cy="139.1" rx="47.05" ry="47.5" transform="translate(-51.72 195.01) rotate(-63.32)"/><ellipse class="cls-72" cx="152.61" cy="139.1" rx="44.69" ry="45.13" transform="translate(-51.72 195.01) rotate(-63.32)"/><ellipse class="cls-73" cx="152.61" cy="139.1" rx="42.34" ry="42.75" transform="translate(-51.72 195.01) rotate(-63.32)"/><ellipse class="cls-74" cx="152.61" cy="139.1" rx="39.99" ry="40.38" transform="translate(-51.72 195.01) rotate(-63.32)"/><ellipse class="cls-75" cx="152.61" cy="139.1" rx="37.64" ry="38" transform="translate(-51.72 195.01) rotate(-63.32)"/><ellipse class="cls-76" cx="152.61" cy="139.1" rx="35.29" ry="35.63" transform="translate(-51.72 195.01) rotate(-63.32)"/><ellipse class="cls-77" cx="152.61" cy="139.1" rx="32.93" ry="33.25" transform="translate(-51.72 195.01) rotate(-63.32)"/><ellipse class="cls-78" cx="152.61" cy="139.1" rx="30.58" ry="30.88" transform="translate(-51.72 195.01) rotate(-63.32)"/><ellipse class="cls-79" cx="152.61" cy="139.1" rx="28.23" ry="28.5" transform="translate(-51.72 195.01) rotate(-63.32)"/><ellipse class="cls-80" cx="152.61" cy="139.1" rx="25.88" ry="26.13" transform="translate(-51.72 195.01) rotate(-63.32)"/><ellipse class="cls-81" cx="152.61" cy="139.1" rx="23.52" ry="23.75" transform="translate(-51.72 195.01) rotate(-63.32)"/><ellipse class="cls-82" cx="152.61" cy="139.1" rx="21.17" ry="21.38" transform="translate(-51.72 195.01) rotate(-63.32)"/><ellipse class="cls-83" cx="152.61" cy="139.1" rx="18.82" ry="19" transform="translate(-51.72 195.01) rotate(-63.32)"/><ellipse class="cls-84" cx="152.61" cy="139.1" rx="16.47" ry="16.63" transform="translate(-51.72 195.01) rotate(-63.32)"/><ellipse class="cls-85" cx="152.61" cy="139.1" rx="14.11" ry="14.25" transform="translate(-51.72 195.01) rotate(-63.32)"/><ellipse class="cls-86" cx="152.61" cy="139.1" rx="11.76" ry="11.88" transform="translate(-51.72 195.01) rotate(-63.32)"/><ellipse class="cls-87" cx="152.61" cy="139.1" rx="9.41" ry="9.5" transform="translate(-51.72 195.01) rotate(-63.32)"/><ellipse class="cls-88" cx="152.61" cy="139.1" rx="7.06" ry="7.13" transform="translate(-51.72 195.01) rotate(-63.32)"/><ellipse class="cls-89" cx="152.61" cy="139.1" rx="4.7" ry="4.75" transform="translate(-51.72 195.01) rotate(-63.32)"/><ellipse class="cls-90" cx="152.61" cy="139.1" rx="2.35" ry="2.38" transform="translate(-51.72 195.01) rotate(-63.32)"/></g><path class="cls-93" d="M198.46,363c-90.31,0-163.78-72.78-163.78-162.23S108.15,38.55,198.46,38.55s163.79,72.78,163.79,162.23S288.77,363,198.46,363Zm0-322.46c-89.21,0-161.78,71.88-161.78,160.23S109.25,361,198.46,361s161.79-71.88,161.79-160.23S287.67,40.55,198.46,40.55Z" transform="translate(-11.52 -17.99)"/><path d="M98.2,189.2a24.65,24.65,0,0,1,10.08,2.05,23.72,23.72,0,0,1,8,5.72,26.51,26.51,0,0,1,5.26,8.75,31.17,31.17,0,0,1,1.9,11,30.81,30.81,0,0,1-1.74,10.48,25,25,0,0,1-4.91,8.39,23.29,23.29,0,0,1-7.57,5.57,22.66,22.66,0,0,1-9.72,2H59.85V227H94.93a19.32,19.32,0,0,0,4.91-.61,11.19,11.19,0,0,0,4-1.9,9.43,9.43,0,0,0,2.71-3.22,9.76,9.76,0,0,0,1-4.6,9.61,9.61,0,0,0-3.27-7.77,12.25,12.25,0,0,0-8.18-2.76H85.83A45.79,45.79,0,0,1,74,204.75a23.83,23.83,0,0,1-9-4.5,20.18,20.18,0,0,1-5.78-7.93,29.72,29.72,0,0,1-2-11.61,26.59,26.59,0,0,1,1.64-9.25,24.49,24.49,0,0,1,4.6-7.83,22.69,22.69,0,0,1,7.16-5.42,21,21,0,0,1,9.31-2h36v17H86.44a34.46,34.46,0,0,0-4.65.31A11.56,11.56,0,0,0,78,174.63a6.17,6.17,0,0,0-2.56,2.5,9,9,0,0,0-.92,4.4A7.48,7.48,0,0,0,76.63,187a7.88,7.88,0,0,0,5.93,2.2Z" transform="translate(-11.52 -17.99)"/><path d="M131.44,198.71a26,26,0,0,1,1.79-7.77,19.76,19.76,0,0,1,4.3-6.55,20.36,20.36,0,0,1,7-4.55,26,26,0,0,1,9.72-1.68h7.67a24.71,24.71,0,0,1,10,1.89,20.36,20.36,0,0,1,7.11,5.06,21.73,21.73,0,0,1,4.24,7.16,23.62,23.62,0,0,1,1.43,8.08V243.2h-36.3a17.1,17.1,0,0,1-7.57-1.59,16.57,16.57,0,0,1-5.52-4.24,17.75,17.75,0,0,1-3.38-6.24,25.12,25.12,0,0,1-1.12-7.57A23.23,23.23,0,0,1,132,216.1a17.55,17.55,0,0,1,3.38-6,15.3,15.3,0,0,1,5.42-3.93,17.73,17.73,0,0,1,7.31-1.43H170v-1.33a24,24,0,0,0-.36-4.25,8,8,0,0,0-1.43-3.42,7,7,0,0,0-3.12-2.25,14.79,14.79,0,0,0-5.42-.82H156.5q-5.22,0-7.37,1.48a7.67,7.67,0,0,0-3,4.55Zm13.09,24.85a7.25,7.25,0,0,0,1.38,4.86,4,4,0,0,0,3,1.59H170V217H148.93a4,4,0,0,0-3,1.63A7.49,7.49,0,0,0,144.53,223.56Z" transform="translate(-11.52 -17.99)"/><path d="M260.4,192.68a14.75,14.75,0,0,0-5.42.82,7,7,0,0,0-3.12,2.25,8,8,0,0,0-1.43,3.37,23,23,0,0,0-.36,4.19V243.2H235V203.42a24,24,0,0,0-.36-4.25,7.59,7.59,0,0,0-1.48-3.42A7.36,7.36,0,0,0,230,193.5a14.79,14.79,0,0,0-5.42-.82h-3.07a15.15,15.15,0,0,0-5.47.82,7.35,7.35,0,0,0-4.86,5.67,21.36,21.36,0,0,0-.41,4.25V243.2h-15v-65h15v1.94a29.08,29.08,0,0,1,10.64-1.94H227a25.27,25.27,0,0,1,9.1,1.53,21,21,0,0,1,6.85,4.19,22,22,0,0,1,7.06-4.19,26.46,26.46,0,0,1,9.31-1.53h6.54a24.67,24.67,0,0,1,10,1.89,21.25,21.25,0,0,1,7.21,5.06,21.5,21.5,0,0,1,4.4,7.16,23,23,0,0,1,1.49,8.08V243.2H274V203.42a25,25,0,0,0-.35-4.25,7.6,7.6,0,0,0-1.49-3.42A7.3,7.3,0,0,0,269,193.5a14.75,14.75,0,0,0-5.42-.82Z" transform="translate(-11.52 -17.99)"/><path d="M314.5,171.1h-15V156.17h15Zm0,72.1h-15v-65h15Z" transform="translate(-11.52 -17.99)"/><path d="M326.16,156.17h15v87h-15Z" transform="translate(-11.52 -17.99)"/><path class="cls-94" d="M96.78,187.32a24.69,24.69,0,0,1,10.08,2.05,23.72,23.72,0,0,1,8,5.72,26.51,26.51,0,0,1,5.26,8.75,32.76,32.76,0,0,1,.16,21.47,25,25,0,0,1-4.91,8.39,23.29,23.29,0,0,1-7.57,5.57,22.66,22.66,0,0,1-9.72,2H58.43V225.16H93.51a19.37,19.37,0,0,0,4.91-.61,11.43,11.43,0,0,0,4-1.89,10.45,10.45,0,0,0,.46-15.6,12.25,12.25,0,0,0-8.18-2.76H84.41a45.79,45.79,0,0,1-11.86-1.43,23.83,23.83,0,0,1-9-4.5,20.18,20.18,0,0,1-5.78-7.93,29.72,29.72,0,0,1-2-11.61,26.59,26.59,0,0,1,1.64-9.25,24.49,24.49,0,0,1,4.6-7.83,22.69,22.69,0,0,1,7.16-5.42,21,21,0,0,1,9.31-2h36v17H85a34.4,34.4,0,0,0-4.65.3,11.62,11.62,0,0,0-3.84,1.18,6.2,6.2,0,0,0-2.55,2.5,8.94,8.94,0,0,0-.92,4.4,7.48,7.48,0,0,0,2.15,5.47,7.88,7.88,0,0,0,5.93,2.2Z" transform="translate(-11.52 -17.99)"/><path class="cls-94" d="M130,196.83a25.67,25.67,0,0,1,1.79-7.77,19.85,19.85,0,0,1,4.29-6.54,20.37,20.37,0,0,1,7-4.56,26,26,0,0,1,9.72-1.68h7.67a24.74,24.74,0,0,1,10,1.89,20.36,20.36,0,0,1,7.11,5.06,21.91,21.91,0,0,1,4.24,7.16,23.86,23.86,0,0,1,1.43,8.08v42.85H147a17.1,17.1,0,0,1-7.57-1.59,16.57,16.57,0,0,1-5.52-4.24,17.75,17.75,0,0,1-3.38-6.24,25.12,25.12,0,0,1-1.12-7.57,23.23,23.23,0,0,1,1.17-7.46,17.41,17.41,0,0,1,3.38-6,15.33,15.33,0,0,1,5.42-3.94,17.73,17.73,0,0,1,7.31-1.43h21.89v-1.33a24,24,0,0,0-.36-4.25,8,8,0,0,0-1.43-3.42,7,7,0,0,0-3.12-2.25,14.79,14.79,0,0,0-5.42-.82h-3.17q-5.22,0-7.37,1.48a7.67,7.67,0,0,0-3,4.55Zm13.09,24.85a7.23,7.23,0,0,0,1.38,4.86,4,4,0,0,0,3,1.59h21.07v-13H147.51a4,4,0,0,0-3,1.63A7.49,7.49,0,0,0,143.11,221.68Z" transform="translate(-11.52 -17.99)"/><path class="cls-94" d="M259,190.8a14.75,14.75,0,0,0-5.42.82,7,7,0,0,0-3.12,2.25,8,8,0,0,0-1.43,3.37,23.11,23.11,0,0,0-.36,4.19v39.89h-15V201.54a24,24,0,0,0-.36-4.25,7.59,7.59,0,0,0-1.48-3.42,7.36,7.36,0,0,0-3.17-2.25,14.79,14.79,0,0,0-5.42-.82h-3.07a15.15,15.15,0,0,0-5.47.82,7.35,7.35,0,0,0-4.86,5.67,21.36,21.36,0,0,0-.41,4.25v39.78h-15v-65h15v1.94A29.29,29.29,0,0,1,220,176.28h5.52a25.27,25.27,0,0,1,9.1,1.53,21,21,0,0,1,6.85,4.19,22,22,0,0,1,7.06-4.19,26.46,26.46,0,0,1,9.31-1.53h6.54a24.67,24.67,0,0,1,10,1.89,21.25,21.25,0,0,1,7.21,5.06,21.5,21.5,0,0,1,4.4,7.16,23,23,0,0,1,1.48,8.08v42.85H272.58V201.54a24,24,0,0,0-.36-4.25,7.59,7.59,0,0,0-1.48-3.42,7.36,7.36,0,0,0-3.17-2.25,14.75,14.75,0,0,0-5.42-.82Z" transform="translate(-11.52 -17.99)"/><path class="cls-94" d="M313.08,169.22h-15V154.29h15Zm0,72.1h-15v-65h15Z" transform="translate(-11.52 -17.99)"/><path class="cls-94" d="M324.74,154.29h15v87h-15Z" transform="translate(-11.52 -17.99)"/></svg>